<?xml version="1.0" standalone="no"?><!DOCTYPE svg PUBLIC "-//W3C//DTD SVG 1.1//EN" "http://www.w3.org/Graphics/SVG/1.1/DTD/svg11.dtd"><svg t="1675312696307" class="icon" viewBox="0 0 1024 1024" version="1.1" xmlns="http://www.w3.org/2000/svg" p-id="2983" xmlns:xlink="http://www.w3.org/1999/xlink" width="200" height="200"><path d="M510.171429 1024c-116.114286 0-267.771429-6.285714-331.542858-36.228571-22.285714-10.4-37.028571-32.114286-38.285714-56.685715l-39.2-753.142857v-1.257143c0-10.514286 3.542857-36.571429 36.685714-50.514285 7.885714-3.314286 17.371429-6.057143 30.057143-8.685715 20-4.114286 47.885714-7.657143 82.857143-10.628571 69.485714-5.942857 161.6-9.257143 259.314286-9.257143 41.485714 0 81.942857 0.571429 120.571428 1.714286 12.685714-22.742857 26.742857-40.914286 35.542858-51.428572 9.142857-10.971429 18.514286-20.571429 26.971428-27.885714C703.885714 10.742857 718.857143 0 738.285714 0c1.257143 0 2.514286 0 3.771429 0.114286 22.971429 1.714286 38.4 17.485714 50.514286 32.685714 1.485714 1.942857 3.085714 3.885714 4.571428 5.942857 24.114286-8.457143 47.542857-13.6 63.771429-13.6 13.942857 0 25.942857 3.657143 35.657143 10.857143 17.257143 12.8 24.8 33.371429 26.057142 70.971429 0.685714 20.457143-0.8 42.514286-4.114285 63.542857 0.228571 2.057143 0.342857 4.114286 0.342857 6.171428v1.257143l-39.2 753.142857c-1.257143 24.571429-15.885714 46.285714-38.171429 56.685715C777.942857 1017.714286 626.285714 1024 510.171429 1024z" fill="#25467A" p-id="2984"></path><path d="M831.771429 928.571429c-0.342857 6.742857-4.457143 12.8-10.628572 15.771428-22.971429 10.857143-95.428571 31.657143-310.971428 31.657143S222.057143 955.2 198.857143 944.342857c-6.285714-2.971429-10.285714-9.028571-10.628572-15.771428l-39.085714-751.771429H870.857143l-39.085714 751.771429z" fill="#FAFBEE" p-id="2985"></path><path d="M149.142857 176.8a360.914286 31.085714 0 1 0 721.828572 0 360.914286 31.085714 0 1 0-721.828572 0Z" fill="#F2F4DC" p-id="2986"></path><path d="M510.171429 888.114286c-134.971429 0-212.342857-4.914286-255.542858-9.714286-22.285714-2.514286-38.857143-15.771429-39.885714-31.885714l-37.028571-577.142857h664.685714l-37.142857 577.257142c-1.028571 16.114286-17.714286 29.371429-39.885714 31.885715-43.2 4.685714-120.342857 9.6-255.2 9.6z" fill="#F0F4C3" p-id="2987"></path><path d="M177.714286 269.257143a332.342857 32.342857 0 1 0 664.685714 0 332.342857 32.342857 0 1 0-664.685714 0Z" fill="#EBF1B0" p-id="2988"></path><path d="M567.771429 799.428571c28.8 31.657143 92.342857 25.942857 157.485714-21.257142s101.714286-119.428571 68.457143-159.085715c-30.057143-33.142857-99.428571-17.371429-162.4 32.914286-62.742857 50.4-91.085714 116.342857-63.542857 147.428571z" fill="#66BB6A" p-id="2989"></path><path d="M563.771429 791.085714c28 30.4 90.171429 24.8 153.942857-20.914285s101.371429-117.714286 68.914285-155.771429c-29.257143-32-98.628571-14.285714-160.114285 34.4-61.714286 48.8-89.714286 112.457143-62.742857 142.285714z" fill="#E6EE9C" p-id="2990"></path><path d="M684.457143 686.057143L718.857143 613.714286c0.914286-1.828571 2.628571-3.085714 4.8-3.542857 20.342857-3.657143 36.685714-1.371429 47.085714 6.742857 1.142857 1.028571 1.142857 2.857143-0.342857 4l-82.971429 65.828571c-1.828571 1.371429-3.657143 1.028571-2.971428-0.685714z m-45.485714-36c21.828571-16.228571 45.028571-28.571429 67.085714-35.428572 2.285714-0.685714 4.228571 1.257143 3.2 3.314286l-33.371429 70.171429c-0.8 1.714286-3.542857 3.085714-4.342857 2.171428l-33.142857-36.685714c-1.028571-0.914286-0.685714-2.628571 0.571429-3.542857z m-62.057143 67.314286c10.971429-19.314286 28-39.314286 49.028571-57.028572 0.914286-0.914286 2.4-0.914286 3.428572 0.114286l33.371428 36.914286c0.8 0.8-1.142857 3.2-3.085714 3.657142l-80.228572 19.428572c-1.028571 0.342857-2.285714-0.228571-2.742857-1.257143-0.228571-0.685714-0.228571-1.257143 0.228572-1.828571z m-8.914286 57.6c-5.714286-10.971429-5.028571-26.057143 2.171429-43.542858 0.571429-1.485714 1.828571-2.514286 3.428571-2.857142l82.514286-20c1.942857-0.457143 1.942857 1.371429 0 2.971428L574.742857 776c-2.171429 1.714286-5.485714 1.371429-6.742857-1.028571z m55.657143 16.914285c-20.342857 3.657143-36.685714 1.371429-47.085714-6.742857-1.142857-1.028571-1.142857-2.857143 0.228571-3.885714l82.857143-65.714286c1.942857-1.485714 3.885714-1.257143 3.085714 0.342857l-34.285714 72.228572c-0.914286 2.057143-2.742857 3.428571-4.8 3.771428z m84.571428-39.771428c-21.828571 16.228571-45.028571 28.571429-66.857142 35.314285-2.285714 0.685714-4.228571-1.257143-3.2-3.314285l33.371428-70.171429c0.8-1.714286 3.542857-3.085714 4.342857-2.171428l33.142857 36.685714c0.8 1.028571 0.571429 2.628571-0.8 3.657143z m-20.685714-51.085715l80.228572-19.428571c1.028571-0.342857 2.285714 0.228571 2.742857 1.257143 0.228571 0.571429 0.114286 1.257143-0.228572 1.828571-10.971429 19.314286-28 39.314286-49.028571 57.028572-0.914286 0.914286-2.4 0.914286-3.428572-0.114286l-33.371428-36.914286c-0.914286-0.8 1.142857-3.2 3.085714-3.657143z m3.657143-10.514285l81.257143-64.457143c2.285714-1.714286 5.6-1.371429 6.857143 0.914286 5.714286 10.971429 5.028571 26.057143-2.171429 43.542857-0.571429 1.485714-1.828571 2.514286-3.428571 2.857143l-82.514286 20c-2.057143 0.457143-1.942857-1.257143 0-2.857143z" fill="#FFF9C4" p-id="2991"></path><path d="M438.742857 743.314286c46.971429 28.914286 44.571429 62.4 25.371429 93.6-19.2 31.2-48.114286 48.342857-94.971429 19.542857s-77.6-112.685714-71.657143-122.171429c5.714286-9.6 94.285714-19.885714 141.257143 9.028572zM691.657143 865.828571c-48.914286 25.371429-76.457143 6.171429-93.371429-26.4s-16.8-66.171429 32.114286-91.542857 136.571429-8.571429 141.714286 1.257143c5.142857 9.942857-31.542857 91.2-80.457143 116.685714z" fill="#9CCC65" p-id="2992"></path><path d="M843.314286 237.714286c-38.285714 51.428571-77.028571 45.142857-111.428572 19.542857s-51.542857-60.914286-13.257143-112.342857 138.857143-78.057143 149.257143-70.285715 13.714286 111.771429-24.571428 163.085715z" fill="#7CB342" p-id="2993"></path><path d="M805.485714 198.857143c-4.685714 63.885714-40.685714 79.428571-83.542857 76.342857s-76.228571-23.657143-71.542857-87.657143c4.685714-63.885714 75.085714-140.457143 88.114286-139.542857 13.142857 0.914286 71.657143 86.857143 66.971428 150.857143z" fill="#9CCC65" p-id="2994"></path><path d="M565.028571 719.542857c33.485714 69.257143 4.914286 107.2-41.942857 129.828572s-94.4 21.485714-127.885714-47.657143-5.371429-191.314286 8.8-198.285715 127.542857 46.857143 161.028571 116.114286z" fill="#AED581" p-id="2995"></path><path d="M556.8 699.771429c-79.085714-41.257143-155.2-43.771429-176.914286-1.714286-23.314286 49.6 34.857143 119.885714 115.428572 157.257143s147.771429 30.171429 168.685714-9.942857c19.771429-39.085714-28.114286-104.342857-107.2-145.6z" fill="#66BB6A" p-id="2996"></path><path d="M561.028571 695.2c-77.371429-39.771429-153.942857-44.228571-175.2-3.657143-22.742857 47.885714 36.228571 117.714286 114.971429 153.6s144.571429 29.028571 164.914286-9.6c19.428571-37.714286-27.314286-100.571429-104.685715-140.342857z" fill="#E6EE9C" p-id="2997"></path><path d="M508.457143 748.685714l-104.114286-53.6c-1.714286-0.914286-2.285714-2.857143-1.371428-4.228571 8.571429-10.857143 24.8-16.8 46.857142-17.028572 2.285714 0 4.571429 1.028571 5.942858 2.857143l55.771428 70.857143c1.142857 1.714286-0.685714 2.4-3.085714 1.142857z m39.885714-49.6c1.6 0.8 2.4 2.628571 1.714286 3.885715l-23.885714 46.514285c-0.571429 1.142857-3.771429 0.228571-5.142858-1.485714l-54.171428-68.8c-1.6-1.942857-0.228571-4.571429 2.4-4.228571 24.457143 2.857143 52 11.2 79.085714 24.114285z m83.885714 61.6c-0.228571 1.142857-1.257143 2.057143-2.514285 1.942857l-88.457143-4.228571c-2.171429-0.114286-4.8-2.171429-4.228572-3.314286l24.114286-46.857143c0.8-1.142857 2.285714-1.485714 3.542857-0.8 26.857143 14.742857 50.057143 32.685714 66.742857 51.314286 0.571429 0.685714 0.8 1.257143 0.8 1.942857z m17.828572 60.914286l-102.057143-52.571429c-2.514286-1.257143-2.971429-3.2-0.914286-3.085714l90.857143 4.342857c1.828571 0.114286 3.428571 0.914286 4.457143 2.4 12.228571 17.371429 17.142857 33.485714 14.4 46.514286-0.571429 2.742857-3.885714 3.885714-6.742857 2.4z m-45.942857 27.314286c-2.285714 0-4.457143-1.028571-5.942857-2.971429l-55.771429-70.742857c-1.257143-1.714286 0.571429-2.4 3.085714-1.142857l104.114286 53.6c1.714286 0.914286 2.285714 2.857143 1.371429 4.114286-8.571429 10.971429-24.8 16.914286-46.857143 17.142857z m-98.514286-25.257143c-1.714286-0.685714-2.514286-2.514286-1.714286-3.771429l23.885715-46.514285c0.571429-1.142857 3.771429-0.228571 5.142857 1.485714l54.171428 68.685714c1.6 1.942857 0.228571 4.571429-2.4 4.228572-24.571429-2.742857-52-11.085714-79.085714-24.114286z m6.971429-59.314286c2.171429 0.114286 4.8 2.171429 4.114285 3.428572l-24.114285 46.857142c-0.8 1.142857-2.285714 1.485714-3.542858 0.685715-26.857143-14.742857-50.057143-32.685714-66.742857-51.314286-0.457143-0.457143-0.685714-1.142857-0.685714-1.828571 0.228571-1.142857 1.257143-2.057143 2.514286-1.942858l88.457143 4.114286z m-6.742858-10.628571c2.514286 1.257143 2.971429 3.2 0.914286 3.085714l-90.857143-4.342857c-1.828571-0.114286-3.428571-0.914286-4.457143-2.4-12.228571-17.371429-17.142857-33.485714-14.4-46.514286 0.571429-2.742857 3.885714-3.885714 6.857143-2.514286l101.942857 52.685715z" fill="#FFF9C4" p-id="2998"></path><path d="M509.485714 573.6c-38.171429 0-69.142857-30.971429-69.142857-69.257143 0-7.657143 6.171429-13.828571 13.828572-13.828571 7.314286 0 13.485714 5.714286 13.828571 13.028571v0.8c-0.342857 22.971429 17.942857 41.828571 40.8 42.171429s41.828571-17.942857 42.171429-40.8v-1.371429c-0.228571-7.657143 5.828571-14.057143 13.371428-14.285714s14.057143 5.828571 14.285714 13.371428v0.8c0 38.4-30.971429 69.371429-69.142857 69.371429zM329.6 393.714286c-0.342857 22.971429 17.942857 41.828571 40.8 42.171428 22.971429 0.342857 41.828571-17.942857 42.171429-40.8v-1.371428c0.342857-22.971429-17.942857-41.828571-40.8-42.171429s-41.828571 17.942857-42.171429 40.8v1.371429zM606.285714 393.714286c-0.342857 22.971429 17.828571 41.828571 40.8 42.285714s41.828571-17.828571 42.285715-40.8v-1.485714c0.342857-22.971429-17.942857-41.828571-40.8-42.171429-22.971429-0.342857-41.828571 17.942857-42.171429 40.8-0.114286 0.457143-0.114286 0.914286-0.114286 1.371429z" fill="#25467A" p-id="2999"></path><path d="M315.771429 462.971429h-55.314286c-15.314286 0.342857-27.428571 12.914286-27.085714 28.228571 0.342857 14.857143 12.228571 26.857143 27.085714 27.085714h55.428571c15.314286 0.342857 27.885714-11.771429 28.228572-27.085714 0.342857-15.314286-11.771429-27.885714-27.085715-28.228571h-1.257142z m442.742857 0h-55.314286c-15.314286 0.342857-27.428571 12.914286-27.085714 28.228571 0.342857 14.857143 12.228571 26.857143 27.085714 27.085714h55.314286c15.314286 0.342857 27.885714-11.771429 28.228571-27.085714 0.342857-15.314286-11.771429-27.885714-27.085714-28.228571h-1.142857z" fill="#AED581" p-id="3000"></path></svg>